<svg xmlns="http://www.w3.org/2000/svg" width="4500" height="1315" viewBox="0 0 4500 1315">
  <defs>
    <linearGradient id="boon-logo---no-padding-a" x1="25.013%" x2="25.013%" y1="0%" y2="105.812%">
      <stop offset="0%" stop-color="#32CB6B"/>
      <stop offset="100%" stop-color="#2DB982"/>
    </linearGradient>
  </defs>
  <path fill="url(#boon-logo---no-padding-a)" fill-rule="evenodd" d="M512.451528,1314.39652 C481.367579,1313.78776 467.176923,1313.08977 462.332625,1311.93057 C458.615998,1311.04115 451.773885,1309.97961 447.128047,1309.57138 C442.482211,1309.16293 436.181642,1308.10686 433.126879,1307.22434 C430.072045,1306.34166 425.621065,1305.61938 423.235867,1305.61938 C420.850598,1305.61938 417.111927,1304.86863 414.927733,1303.95107 C412.743539,1303.03353 408.325129,1301.94876 405.109068,1301.54032 C401.893008,1301.13187 397.552597,1300.0991 395.463783,1299.2452 C393.374898,1298.39136 390.840836,1297.7002 389.832426,1297.70922 C387.851073,1297.73053 377.864893,1294.71754 362.657984,1289.51996 C357.392673,1287.72031 351.37563,1285.80523 349.286674,1285.26423 C347.197718,1284.72295 344.942377,1283.73131 344.274791,1283.06004 C343.607133,1282.38876 342.376241,1281.83967 341.539373,1281.83967 C340.202503,1281.83967 324.308366,1275.46264 314.791666,1271.10788 C294.558178,1261.84942 270.959929,1249.27273 257.352035,1240.49517 C216.418519,1214.09195 192.970991,1195.60066 161.213464,1164.67788 C148.812554,1152.60284 128.545358,1130.91928 121.073598,1121.7327 C118.595882,1118.68632 115.001807,1114.35501 113.086767,1112.10756 C103.422779,1100.76616 82.5709983,1070.69827 72.1666318,1053.10152 C68.3000885,1046.56211 64.6760716,1040.44734 64.1132536,1039.51309 C61.3974624,1035.00526 41.6718821,994.297154 41.6718821,993.200388 C41.6718821,992.509932 40.6582436,990.043977 39.4193466,987.719949 C38.1804567,985.395921 37.1506955,982.722549 37.1309978,981.779141 C37.1112154,980.835738 36.3510678,979.074725 35.441598,977.865796 C34.5321211,976.65679 33.7880114,974.759609 33.7880114,973.649698 C33.7880114,972.539786 32.83803,969.452355 31.6769346,966.788782 C28.9236558,960.472768 27.0827789,955.085956 25.7652113,949.489947 C25.1786618,946.998707 23.9563396,943.354719 23.0489187,941.392185 C22.1415049,939.429652 21.4015849,936.881863 21.4046441,935.730401 C21.4077103,934.578861 20.6914727,931.343749 19.8130048,928.54109 C16.4030901,917.662338 13.515206,905.795779 13.515206,902.662955 C13.515206,900.859676 12.8250105,897.409404 11.9814516,894.995585 C11.1378927,892.581771 10.0873528,887.039893 9.64691781,882.680235 C9.20647577,878.32065 8.17512487,871.951076 7.35500113,868.525661 C6.53487025,865.100245 5.54369898,854.466136 5.15238097,844.894336 C4.46826152,828.160511 3.35414231,822.412771 1.06975707,823.83225 C0.39503429,824.251354 0,672.27482 0,412.248495 L0,0 L11.8258061,0 C21.2928096,0 23.6516122,0.321074903 23.6516122,1.60857098 C23.6516122,3.5316816 27.3667206,4.44397466 39.8612583,5.58897602 C45.0030203,6.05993319 49.8749568,6.85892659 50.6877825,7.36398025 C51.5006006,7.86903385 54.9994516,8.91785477 58.462998,9.6946855 C65.4089475,11.252538 67.9262004,12.1057305 82.7806287,17.9363651 C93.2297745,22.0378125 108.454812,29.6938146 111.58913,32.42288 C112.567075,33.2743678 113.712613,33.9710008 114.134784,33.9710008 C114.556927,33.9710008 117.557961,35.8414041 120.803702,38.1273578 C143.977985,54.4491141 165.651275,76.2078328 181.519207,99.0821449 C186.472443,106.222438 198.223012,126.639675 198.223012,128.105893 C198.223012,128.711815 199.17548,131.091818 200.339613,133.394962 C204.661386,141.945428 206.309745,146.708347 212.174061,167.590361 C213.136017,171.015775 214.242174,176.620947 214.632192,180.046361 C215.022189,183.471776 216.043585,189.331818 216.90191,193.068647 C218.024543,197.956018 218.467196,208.473564 218.479172,230.544336 C218.494715,258.817608 218.657496,261.372923 220.555467,263.099908 C222.452526,264.82597 235.766276,264.973366 389.213942,264.966618 C550.987806,264.959869 585.73928,265.550519 601.989784,268.58624 C605.706413,269.280245 613.308734,270.491592 618.883785,271.277515 C635.382841,273.603532 649.09822,276.042138 652.108615,277.184866 C653.657301,277.77303 657.458426,278.615852 660.555651,279.058466 C663.652876,279.50101 668.467712,280.55871 671.255202,281.408564 C686.663397,286.106415 692.267836,287.652405 693.836862,287.637701 C694.797022,287.630598 696.064016,288.101554 696.652543,288.688724 C697.24107,289.276177 699.749768,290.263198 702.227517,290.882901 C704.705343,291.50232 710.280317,293.349779 714.616488,294.987545 C718.952588,296.625382 724.020783,298.435833 725.879133,299.010713 C727.737478,299.58538 731.031824,300.89376 733.199909,301.917719 C735.367923,302.941607 738.662269,304.430343 740.520614,305.225998 C801.163357,331.190301 855.726386,368.081307 907.062828,417.827952 C930.321264,440.366131 963.509997,480.312676 979.987999,505.60194 C988.720816,519.004401 991.115059,522.908941 991.115059,523.747856 C991.115059,524.257172 991.824332,525.478322 992.691156,526.461578 C993.558052,527.444834 995.818687,531.051883 997.714766,534.477297 C1002.51667,543.152215 1022.65054,583.801434 1022.65054,584.821339 C1022.65054,585.281643 1023.36921,587.263499 1024.24762,589.226032 C1028.16306,597.973973 1030.53731,603.936873 1030.57263,605.111142 C1030.59383,605.810122 1031.59009,608.420911 1032.78693,610.912085 C1033.98376,613.40333 1034.98023,616.490689 1035.00122,617.773 C1035.02241,619.055239 1035.78361,621.093495 1036.69304,622.30243 C1037.60254,623.511359 1038.36261,625.519643 1038.38218,626.765227 C1038.41044,628.73984 1039.98222,634.159328 1044.28322,647.147871 C1044.90212,649.016283 1045.82745,652.935674 1046.34002,655.857668 C1046.85225,658.779662 1048.0257,663.875377 1048.94692,667.18138 C1051.15634,675.109727 1052.93464,684.391419 1054.76311,697.538227 C1055.58606,703.454817 1056.80642,709.730197 1057.47521,711.48339 C1058.14428,713.236661 1058.70165,717.822777 1058.71465,721.674748 C1058.72878,725.526725 1059.47203,734.793074 1060.36889,742.266733 C1062.31258,758.463251 1062.64677,815.512365 1060.88323,830.025159 C1060.23959,835.318992 1059.27796,845.863101 1058.74581,853.456595 C1058.2138,861.050089 1057.44914,867.798056 1057.04706,868.452142 C1056.64505,869.106365 1055.61001,874.613441 1054.74707,880.690351 C1053.88413,886.767189 1052.64476,894.159652 1051.99279,897.11795 C1051.34067,900.076242 1050.26903,904.917086 1049.61105,907.875449 C1048.95329,910.833741 1047.77142,916.311833 1046.98528,920.049086 C1046.19921,923.786273 1044.96366,927.956692 1044.23976,929.316643 C1043.51586,930.676595 1042.92352,933.12209 1042.92352,934.750909 C1042.92352,936.379794 1042.14671,939.222867 1041.19722,941.068907 C1040.24781,942.914875 1039.01953,946.58394 1038.46774,949.222366 C1037.37765,954.434997 1034.7651,962.137385 1032.17367,967.77893 C1031.27215,969.741463 1030.53462,971.768355 1030.53462,972.283212 C1030.53462,975.295278 1019.93823,999.511071 1008.54855,1022.52759 C989.443302,1061.13614 962.735299,1099.90408 931.571088,1134.26414 C925.604917,1140.84205 919.803714,1147.42466 918.679503,1148.89208 C913.290628,1155.92568 872.44199,1192.63655 852.71698,1208.17295 C839.219204,1218.80457 807.284751,1240.13744 791.765985,1248.88965 C787.12015,1251.50982 782.558739,1254.1128 781.6296,1254.67396 C773.741351,1259.43866 741.390971,1274.49302 728.131857,1279.56927 C724.415228,1280.99223 719.853822,1282.78691 717.995472,1283.55764 C713.719495,1285.33086 709.039042,1286.93616 697.722702,1290.51082 C692.767127,1292.07621 686.431871,1294.11638 683.64431,1295.04459 C680.85682,1295.97286 676.54884,1297.17 674.071091,1297.70496 C668.890842,1298.82325 662.819753,1300.35127 651.287925,1303.43927 C646.80996,1304.63833 641.48834,1305.62493 639.46212,1305.63161 C637.435834,1305.64581 633.497289,1306.33555 630.709799,1307.18037 C627.922243,1308.02532 621.587054,1309.08479 616.631479,1309.53444 C611.675909,1309.98409 604.580367,1311.06324 600.863738,1311.93234 C597.03294,1312.82809 587.764648,1313.54113 579.464642,1313.57856 C571.411842,1313.61408 562.795881,1314.00477 560.318127,1314.44511 C557.840306,1314.88552 536.30047,1314.8635 512.45174,1314.39538 L512.451528,1314.39652 L512.451528,1314.39652 Z M559.334941,1108.52665 C561.733914,1107.9669 567.21118,1107.497 571.506655,1107.48216 C575.802131,1107.46795 582.137391,1106.73076 585.584975,1105.84539 C589.032636,1104.96002 594.640889,1103.72402 598.047849,1103.09864 C604.874702,1101.84559 612.55693,1099.94784 617.757525,1098.22973 C619.615875,1097.616 623.416999,1096.44052 626.204489,1095.61795 C633.102982,1093.58232 638.283654,1091.6852 643.785011,1089.18011 C646.330658,1088.02098 648.925268,1087.07252 649.550815,1087.07252 C652.505609,1087.07252 685.554729,1069.04751 698.720442,1060.25531 C746.686521,1028.22333 780.80941,992.938412 806.45799,948.84872 C812.819529,937.913353 825.553772,911.952533 825.553772,909.918959 C825.553772,909.450137 826.291373,907.461247 827.192822,905.498714 C829.163578,901.208388 832.037118,893.209572 833.559657,887.775879 C834.17009,885.596119 835.156385,882.793459 835.750637,881.547875 C836.344818,880.302291 837.312109,876.990105 837.899927,874.187517 C838.487751,871.384863 839.692287,866.28922 840.576703,862.863804 C843.994828,849.62593 845.826613,840.284925 845.826756,836.091204 C845.826894,833.689107 846.643347,827.64722 847.641087,822.664801 C849.808535,811.841454 850.130001,767.534899 848.113747,757.553657 C847.422067,754.128247 846.439518,746.994347 845.931108,741.700514 C845.422417,736.406686 844.499991,730.801516 843.880796,729.244518 C843.261891,727.687515 842.408769,723.86573 841.98564,720.751728 C841.562438,717.637732 840.529014,712.796888 839.689039,709.994229 C838.84906,707.191646 837.029641,701.076872 835.645929,696.405873 C832.531254,685.892088 829.784323,678.332622 823.918684,664.133374 C820.653875,656.230098 808.10205,631.704309 802.766019,622.801944 C797.691538,614.336005 788.386793,601.36025 773.927093,582.585256 C768.672667,575.762836 744.535462,551.330245 738.90008,547.129776 C736.694266,545.485548 732.101983,541.77756 728.695023,538.889733 C725.288063,536.001835 719.839763,531.789432 716.587667,529.528695 C713.335578,527.26803 708.145862,523.634911 705.054994,521.455083 C701.964059,519.275326 699.186393,517.491797 698.882378,517.491797 C698.578576,517.491797 695.658896,515.814039 692.394796,513.763421 C689.130691,511.712733 685.192997,509.413283 683.64431,508.653501 C682.095701,507.893647 678.801426,506.125675 676.323606,504.724666 C672.48828,502.556061 658.030069,495.974026 645.914379,490.880941 C641.250386,488.920395 635.578473,486.935697 629.583544,485.16666 C626.795983,484.344155 622.994859,483.179192 621.136508,482.577888 C609.486132,478.808312 605.569558,477.776184 600.695731,477.191075 C597.690847,476.830221 592.951677,475.844407 590.164193,474.999952 C580.578249,472.096 553.04504,469.511276 531.598253,469.501954 C511.419591,469.494867 487.151826,471.713978 475.2849,474.655294 C472.497412,475.346457 467.42922,476.281197 464.022258,476.733046 C458.524151,477.462213 454.843273,478.441775 442.060067,482.577888 C440.201718,483.179548 436.400591,484.344155 433.613033,485.16666 C427.172644,487.067182 421.579864,489.052092 417.282198,490.962701 C415.423848,491.788829 410.609013,493.813732 406.582649,495.462437 C396.864804,499.441564 377.192289,509.324917 374.958498,511.350246 C373.980538,512.236895 372.765967,512.962368 372.259395,512.962368 C371.315348,512.962368 363.922153,517.629817 351.958646,525.77837 C316.485538,549.940036 280.636259,588.509297 258.100737,626.757627 C251.953483,637.191067 238.768835,663.38332 238.768835,665.161946 C238.768835,665.705359 237.819871,668.244124 236.660011,670.803563 C232.274129,680.481838 230.884971,684.07951 230.884971,685.759965 C230.884971,686.713249 229.940331,689.880738 228.785778,692.798825 C226.507787,698.556292 224.816889,704.514219 222.459443,715.089872 C221.626467,718.826702 220.393936,723.664204 219.720485,725.839914 C219.047034,728.015624 218.496029,731.763818 218.496029,734.16918 C218.496029,736.574613 217.614481,741.673663 216.537023,745.50035 C214.857457,751.465525 214.582811,757.707663 214.582811,789.259947 C214.582811,821.061772 214.853239,826.897523 216.541869,832.212305 C217.61665,835.595097 218.496029,840.439354 218.496029,842.977333 C218.496029,845.515318 219.046335,849.371911 219.718874,851.547621 C220.391406,853.72333 221.595225,858.815632 222.39397,862.863804 C223.192707,866.912048 224.36344,871.752892 224.995581,873.621304 C225.6277,875.489721 227.248851,880.585365 228.598085,884.945016 C232.658411,898.064622 243.909911,925.713289 247.721784,931.938237 C248.29385,932.872407 250.150037,936.439392 251.846665,939.864808 C260.58407,957.505244 284.902337,991.062965 301.544562,1008.44491 C329.16524,1037.29327 372.845309,1069.56109 400.951292,1081.87978 C404.977727,1083.64448 408.75349,1085.53477 409.342017,1086.08046 C409.930545,1086.626 411.19754,1087.07565 412.157625,1087.07948 C413.117781,1087.08289 415.423848,1087.90902 417.282198,1088.9143 C419.140547,1089.91965 422.181462,1091.16168 424.039741,1091.67448 C429.51312,1093.18474 438.411618,1096.25555 442.230267,1097.95199 C444.182229,1098.8191 447.112716,1099.52859 448.742507,1099.52859 C450.372228,1099.52859 453.492697,1100.27929 455.676891,1101.19683 C457.861085,1102.11438 462.279495,1103.17422 465.495556,1103.55205 C468.711687,1103.92995 472.863458,1104.76162 474.721807,1105.40057 C476.580156,1106.03917 484.18241,1107.06029 491.615806,1107.66898 C499.049131,1108.27774 509.185587,1109.18762 514.141161,1109.69126 C524.56312,1110.75031 552.936805,1110.01943 559.335155,1108.52665 L559.334941,1108.52665 L559.334941,1108.52665 Z M2778.85241,1313.6589 C2769.50994,1313.59497 2759.92026,1312.87497 2755.76396,1311.93028 C2751.85389,1311.04172 2744.60031,1309.95283 2739.64473,1309.51057 C2734.68916,1309.06803 2728.67028,1308.01175 2726.26954,1307.16282 C2723.86865,1306.31403 2719.95858,1305.61938 2717.58024,1305.61938 C2715.20203,1305.61938 2711.08453,1304.8905 2708.43015,1303.99966 C2705.77584,1303.10882 2701.57687,1302.06682 2699.09912,1301.68423 C2696.6213,1301.30135 2691.80653,1300.2048 2688.39957,1299.24669 C2676.9249,1296.02024 2666.45936,1292.96712 2663.05854,1291.85415 C2661.20019,1291.2461 2657.39906,1290.07531 2654.61157,1289.25273 C2647.38067,1287.11901 2642.14206,1285.22353 2638.471,1283.41258 C2636.71729,1282.54753 2634.68245,1281.83967 2633.9493,1281.83967 C2633.21594,1281.83967 2630.72476,1280.82054 2628.41326,1279.57495 C2626.10182,1278.32937 2623.39989,1277.31024 2622.40921,1277.31024 C2621.41853,1277.31024 2619.26274,1276.58086 2617.61854,1275.68938 C2615.97426,1274.79783 2612.34835,1273.05117 2609.56087,1271.80786 C2603.11567,1268.9331 2592.61324,1263.87596 2590.41435,1262.58853 C2589.48514,1262.04441 2585.93744,1260.26109 2582.53048,1258.62525 C2579.12352,1256.98947 2575.57575,1255.19884 2574.64661,1254.64612 C2573.7174,1254.09347 2567.88899,1250.70969 2561.69454,1247.12671 C2550.61701,1240.71935 2546.41028,1238.07923 2534.101,1229.80913 C2517.06237,1218.36146 2503.53846,1208.08103 2483.88785,1191.6388 C2470.24319,1180.2221 2435.63358,1146.18191 2423.04912,1131.80103 C2388.33092,1092.12725 2361.15153,1049.99221 2340.14413,1003.27738 C2338.88384,1000.47472 2337.15493,996.739099 2336.30224,994.975959 C2335.4494,993.212747 2334.75172,991.23032 2334.75172,990.570485 C2334.75172,989.910579 2333.79333,987.27677 2332.62206,984.71733 C2328.78787,976.339551 2324.42302,963.928233 2322.23988,955.196345 C2321.62309,952.729609 2320.69678,950.181821 2320.18131,949.534488 C2319.66555,948.887365 2318.70546,946.064537 2318.047,943.261878 C2316.37305,936.135436 2314.53285,929.181465 2312.0787,920.706937 C2310.921,916.709554 2309.97384,912.0583 2309.97384,910.370811 C2309.97384,908.683393 2309.27722,905.584378 2308.42495,903.484253 C2307.57317,901.384052 2306.52562,895.938922 2306.09719,891.383992 C2305.66905,886.828992 2304.59182,881.032309 2303.70415,878.502496 C2302.81627,875.972612 2302.08835,871.036794 2302.08637,867.534024 C2302.08637,864.031182 2301.25593,856.579192 2300.24533,850.973945 C2297.57308,836.15144 2297.57216,746.896033 2300.2442,732.641588 C2301.23657,727.34776 2302.05776,720.193544 2302.06921,716.743267 C2302.08333,713.292989 2302.83994,707.575156 2303.75658,704.03694 C2304.67314,700.498652 2305.91668,694.149467 2306.51976,689.927477 C2308.03538,679.318582 2309.79962,670.782394 2311.81495,664.306483 C2312.75434,661.28774 2313.93917,656.446825 2314.44793,653.549055 C2314.95662,650.651208 2315.87884,646.751568 2316.49718,644.883156 C2317.11538,643.014744 2318.47422,638.938226 2319.51648,635.82423 C2320.5588,632.710157 2321.81845,628.210491 2322.31569,625.824874 C2322.81308,623.439335 2323.78715,620.916974 2324.4806,620.219704 C2325.1744,619.522149 2325.75883,617.907327 2325.77974,616.630556 C2325.80093,615.353856 2326.7972,612.27097 2327.9941,609.77973 C2329.19101,607.288556 2330.18741,604.678118 2330.20846,603.978788 C2330.25086,602.670621 2333.20035,595.392519 2339.56952,580.904367 C2342.3734,574.526347 2354.83549,548.890575 2356.63407,545.801012 C2357.54046,544.244014 2361.91535,536.66153 2366.35601,528.951116 C2381.92395,501.920376 2398.23105,479.322742 2423.24567,450.115939 C2445.36655,424.28788 2485.58059,386.611732 2511.86101,367.093007 C2520.35008,360.788148 2548.36358,341.697547 2552.68442,339.272721 C2554.5427,338.229796 2557.58361,336.389156 2559.44196,335.182355 C2561.30031,333.975554 2564.34122,332.207511 2566.19957,331.253521 C2568.05792,330.29946 2571.85905,328.191376 2574.64661,326.568811 C2586.11414,319.893863 2607.23714,309.690075 2620.26041,304.53448 C2623.97711,303.063146 2628.01768,301.203612 2629.23959,300.402132 C2630.46145,299.600653 2632.51409,298.944935 2633.80093,298.944935 C2635.08785,298.944935 2636.62227,298.47753 2637.21072,297.906272 C2638.68154,296.478412 2660.72492,288.834486 2667.23518,287.494709 C2670.15189,286.894469 2673.95309,285.661457 2675.68222,284.754562 C2677.41148,283.847739 2680.23642,283.102589 2681.95968,283.098753 C2683.68308,283.095415 2686.83139,282.36163 2688.95581,281.469156 C2691.08031,280.576681 2695.24522,279.49483 2698.21124,279.065001 C2701.17741,278.635244 2705.31328,277.581877 2707.40203,276.724351 C2709.49098,275.866826 2713.07337,275.16522 2715.36305,275.16522 C2717.6528,275.16522 2722.02563,274.431436 2725.0804,273.534629 C2728.13516,272.637821 2735.7028,271.349047 2741.89725,270.670669 C2748.0917,269.992292 2754.68038,268.974087 2756.53873,268.407873 C2761.68725,266.839223 2799.8642,264.942606 2826.36731,264.942606 C2854.13643,264.942606 2883.51464,266.639901 2896.19582,268.982114 C2901.15139,269.89739 2906.72644,270.638277 2908.58479,270.628546 C2912.76185,270.607236 2935.86422,274.76132 2943.49904,276.907478 C2946.59627,277.778073 2950.90425,278.777597 2953.07233,279.128506 C2955.24042,279.479415 2959.5484,280.478157 2962.64562,281.347901 C2980.2602,286.294017 2985.50615,287.824805 2988.54976,288.90687 C2990.4081,289.567489 2993.70245,290.501021 2995.87046,290.981284 C2998.03855,291.461475 3001.33289,292.682341 3003.19124,293.694224 C3005.04959,294.706036 3007.60901,295.537066 3008.8789,295.540902 C3010.14873,295.544241 3011.66922,296.021804 3012.25768,296.600946 C3012.8462,297.179876 3015.48165,298.454017 3018.11427,299.431875 C3030.36088,303.980483 3032.649,304.905775 3039.64683,308.140108 C3043.75465,310.038782 3049.39632,312.604824 3052.18381,313.842454 C3054.97137,315.080084 3058.01229,316.487771 3058.94143,316.97059 C3103.57437,340.164415 3145.47437,369.033166 3177.19949,398.449592 C3183.08427,403.906089 3190.16611,410.37454 3192.93685,412.823873 C3206.97476,425.233346 3232.4205,453.374351 3248.40387,474.166294 C3262.96431,493.107012 3287.57368,529.202861 3287.57368,531.618594 C3287.57368,531.890656 3289.16645,534.81059 3291.11318,538.107717 C3297.34585,548.66355 3312.17181,579.195501 3316.84364,591.095653 C3318.18843,594.521069 3320.26191,599.502988 3321.45148,602.166562 C3322.64103,604.83013 3323.61419,607.984831 3323.61419,609.177004 C3325.07809,612.254137 3326.90959,616.998018 3328.62812,622.47284 C3330.34658,627.947662 3332.2635,633.701013 3332.88792,635.258012 C3333.51248,636.815015 3334.68339,640.891528 3335.49023,644.316943 C3337.14934,651.359919 3338.86186,658.126499 3341.0787,666.398084 C3341.91324,669.512085 3343.10527,674.862528 3343.72757,678.287943 C3344.35001,681.713359 3345.3763,686.809002 3346.00849,689.611656 C3347.95698,698.250775 3349.4637,709.77459 3351.19064,729.244518 C3352.10212,739.52076 3353.36572,749.771145 3353.99876,752.023214 C3355.48894,757.324785 3355.52116,825.173093 3354.03408,831.505374 C3353.42154,834.116663 3352.19128,844.660992 3351.29937,854.937233 C3350.40754,865.213474 3349.13447,875.055769 3348.47055,876.809039 C3347.80643,878.562303 3347.25146,882.384022 3347.23698,885.301823 C3347.22285,888.219558 3346.20864,894.394069 3344.98439,899.023017 C3343.76007,903.651894 3342.75837,908.424401 3342.75837,909.628505 C3342.75837,910.832675 3342.03306,914.179241 3341.14653,917.065504 C3340.26006,919.9517 3338.97074,924.606147 3338.28118,927.408735 C3337.59162,930.211389 3336.02033,936.071364 3334.78937,940.43095 C3333.55833,944.790607 3332.0786,950.174363 3331.50131,952.395037 C3330.92409,954.615568 3329.67589,957.927755 3328.72802,959.755396 C3327.78002,961.582965 3327.0013,963.928799 3326.99762,964.968175 C3326.99762,966.007618 3326.27825,968.300673 3325.40754,970.063819 C3324.53683,971.82703 3322.7249,976.327048 3321.38089,980.063806 C3320.03696,983.800636 3317.88915,989.405877 3316.60803,992.519879 C3314.12187,998.562904 3294.0465,1039.7014 3291.75491,1043.44882 C3284.42495,1055.43571 3283.06618,1057.7527 3283.06618,1058.265 C3283.06618,1058.58963 3282.10934,1060.23571 3280.93977,1061.9232 C3279.77042,1063.61068 3276.85936,1068.04877 3274.47105,1071.78559 C3237.75455,1129.23221 3171.93644,1194.76928 3112.41642,1233.14789 C3107.04654,1236.61045 3093.23465,1245.06587 3091.60076,1245.89079 C3090.67162,1246.36033 3086.8705,1248.50748 3083.1538,1250.66288 C3079.4371,1252.81848 3069.8075,1257.87278 3061.7547,1261.89496 C3048.5158,1268.50746 3042.82184,1271.16614 3032.47174,1275.5682 C3030.61346,1276.35859 3027.31911,1277.76699 3025.15103,1278.69796 C3016.52291,1282.40283 3008.68998,1285.23682 3007.07806,1285.23682 C3006.14384,1285.23682 3004.31884,1285.98374 3003.02245,1286.8966 C3001.72613,1287.80953 2998.69921,1289.05683 2996.29585,1289.66843 C2993.8925,1290.28003 2988.37842,1291.86317 2984.04225,1293.18661 C2979.70615,1294.50998 2971.65335,1296.73407 2971.65335,1296.73407 C2969.17553,1297.36201 2965.62783,1298.40003 2963.76948,1299.04105 C2961.91113,1299.68177 2957.8291,1300.60266 2954.69831,1301.08669 C2951.56752,1301.57043 2946.24591,1302.75315 2942.8725,1303.71417 C2935.75485,1305.74213 2927.36031,1307.18875 2908.71606,1309.60036 C2901.35628,1310.55243 2894.7676,1311.68649 2894.07457,1312.1208 C2891.40218,1313.79508 2802.64738,1315.98748 2797.42771,1314.50812 C2796.00097,1314.10322 2787.64105,1313.72091 2778.85241,1313.6589 L2778.85241,1313.6589 Z M2853.71033,1108.46804 C2855.16766,1107.91113 2860.25485,1107.45232 2865.01529,1107.44885 C2869.77565,1107.44543 2875.60815,1106.90188 2877.97632,1106.24041 C2880.34443,1105.57908 2886.17283,1104.34514 2890.92839,1103.49806 C2900.05121,1101.87287 2907.48778,1100.09673 2913.08989,1098.20501 C2914.94817,1097.57778 2918.49594,1096.58152 2920.97376,1095.9918 C2923.45151,1095.40222 2927.07587,1094.17311 2929.02776,1093.26081 C2930.97979,1092.34845 2933.27434,1091.60202 2934.12697,1091.60202 C2934.97952,1091.60202 2936.67678,1090.9066 2937.8987,1090.05596 C2939.12062,1089.20568 2941.38734,1088.13612 2942.93595,1087.6793 C2955.97604,1083.83222 2987.11001,1066.33087 3005.01469,1052.78301 C3010.95613,1048.28718 3017.79139,1043.11908 3020.20386,1041.2984 C3022.6164,1039.47765 3033.46609,1029.03156 3044.31414,1018.08483 C3062.11312,1000.12417 3076.40593,983.232928 3085.50212,969.408809 C3087.30911,966.662556 3089.54777,963.271949 3090.47691,961.874062 C3093.95191,956.646153 3101.73962,943.030517 3101.73962,942.182797 C3101.73962,941.69834 3102.65866,940.087354 3103.78188,938.602028 C3106.13126,935.495418 3118.64902,907.189681 3118.63977,905.004668 C3118.63977,904.204253 3119.34416,902.420796 3120.2124,901.041385 C3121.08085,899.661968 3122.15299,896.749921 3122.59506,894.57009 C3123.03734,892.390335 3123.7885,890.097274 3124.26491,889.474447 C3124.7411,888.851476 3125.45913,886.558635 3125.86008,884.378803 C3126.26067,882.198977 3127.30992,877.86766 3128.19109,874.753664 C3131.26422,863.893305 3133.50281,853.178352 3134.46036,844.745947 C3134.99095,840.074947 3136.04444,833.705374 3136.80175,830.591377 C3137.72588,826.791679 3138.18518,813.94265 3138.19862,791.524663 C3138.21231,763.871446 3137.88943,756.791743 3136.30959,750.406123 C3135.25999,746.163525 3134.40136,740.240193 3134.40136,737.243185 C3134.40136,734.246111 3133.70474,729.808742 3132.85317,727.382355 C3132.00175,724.956033 3130.92997,720.227995 3130.47137,716.875747 C3130.01284,713.523499 3128.93554,709.091454 3128.07755,707.026776 C3127.21948,704.962092 3126.51431,702.109923 3126.5105,700.688598 C3126.5105,699.267273 3125.7281,696.609102 3124.7801,694.781461 C3123.83224,692.95382 3122.60311,689.641634 3122.04892,687.421103 C3120.77811,682.329296 3117.96964,674.370685 3115.6293,669.229012 C3114.63707,667.049257 3113.16321,663.737071 3112.35397,661.868659 C3108.45223,652.859808 3103.66516,643.114686 3100.11633,636.956585 C3097.96287,633.219755 3095.35137,628.633645 3094.31301,626.765227 C3078.77164,598.79925 3044.6987,559.891581 3015.01704,536.217779 C2993.26907,518.871709 2979.92559,510.427155 2956.45111,499.153804 C2929.98127,486.441867 2916.60756,482.125612 2881.55441,474.981625 C2871.19815,472.870913 2838.06467,469.889605 2825.24106,469.914453 C2811.48547,469.943023 2774.98685,473.407222 2766.67512,475.475953 C2764.19736,476.09253 2759.63596,477.108746 2756.53873,477.73399 C2743.6381,480.337893 2737.14882,482.169441 2723.87699,486.95232 C2680.85695,502.45569 2646.61593,524.100825 2613.38827,556.796973 C2588.60913,581.179555 2567.07954,608.947204 2553.43135,634.125657 C2548.37573,643.452313 2540.01094,660.698012 2539.15104,663.567156 C2538.68473,665.124231 2537.61062,667.403223 2536.76492,668.631689 C2535.91922,669.860154 2535.21002,671.643683 2535.18904,672.594972 C2535.16784,673.546337 2534.17158,676.362917 2532.97474,678.854157 C2531.77783,681.345331 2530.78143,684.324154 2530.76038,685.473627 C2530.73918,686.623177 2530.02391,688.916161 2529.1705,690.56927 C2527.62168,693.569405 2525.96257,699.230904 2523.80981,708.861874 C2523.18314,711.664456 2521.95111,716.760171 2521.07143,720.185587 C2520.19182,723.610931 2518.90257,730.490102 2518.20644,735.472516 C2517.51052,740.45493 2516.53087,747.079302 2516.0298,750.193304 C2514.76288,758.067877 2514.85487,827.068928 2516.14143,833.988447 C2516.72078,837.102449 2517.88052,844.5077 2518.71922,850.444529 C2519.558,856.38143 2520.82782,862.335307 2521.54119,863.675441 C2522.25456,865.015576 2522.83807,867.546812 2522.838,869.300505 C2522.83779,872.095344 2523.84613,875.768668 2528.68633,890.606807 C2529.29605,892.475219 2530.27408,895.980902 2530.85993,898.397276 C2531.44563,900.813574 2532.66826,903.856969 2533.57627,905.160306 C2534.48428,906.463714 2535.22719,908.274945 2535.22719,909.18532 C2535.22719,910.095695 2536.28957,913.167145 2537.58815,916.010646 C2538.88665,918.85422 2540.73469,922.964189 2541.69498,925.14402 C2542.65521,927.323846 2543.83467,929.871635 2544.31588,930.805876 C2544.79702,931.740047 2547.08436,936.247456 2549.39877,940.822208 C2551.71324,945.397025 2554.79301,950.897495 2556.24272,953.045497 C2557.69256,955.193432 2558.8788,957.220681 2558.8788,957.550494 C2558.8788,958.110238 2564.97151,967.132872 2575.22821,981.76238 C2577.62973,985.187795 2581.39553,990.07062 2583.59661,992.613149 C2585.7977,995.155607 2589.62588,999.649377 2592.10363,1002.59922 C2602.76468,1015.29126 2626.35093,1037.67224 2640.97009,1048.96847 C2650.26678,1056.15202 2667.50782,1067.82231 2668.82364,1067.82231 C2669.27157,1067.82231 2670.43888,1068.52413 2671.41684,1069.3818 C2675.83553,1073.25736 2714.35598,1091.60195 2718.07536,1091.60202 C2718.60101,1091.60202 2720.62843,1092.30668 2722.58046,1093.1679 C2728.24432,1095.66696 2740.72739,1099.52859 2743.14192,1099.52859 C2744.35853,1099.52859 2748.23808,1100.54773 2751.76296,1101.79331 C2755.28784,1103.03889 2760.24504,1104.05802 2762.77903,1104.05802 C2765.31302,1104.05802 2768.49327,1104.66608 2769.84631,1105.40902 C2771.19936,1106.15204 2778.13481,1107.18779 2785.25847,1107.71067 C2792.38212,1108.23349 2802.51851,1109.10494 2807.78382,1109.647 C2818.74859,1110.77588 2849.75518,1109.98015 2853.71025,1108.46804 L2853.71033,1108.46804 L2853.71033,1108.46804 Z M4384.07485,1314.9481 C4383.91306,1314.78543 4379.77415,1314.19457 4374.87743,1313.63589 C4354.79174,1311.34411 4331.70775,1299.43045 4316.59473,1283.55593 C4304.50681,1270.85905 4292.61423,1250.17963 4290.43859,1238.07447 C4290.00762,1235.67628 4289.08809,1232.69497 4288.39535,1231.44938 C4286.71914,1228.43568 4285.71447,1152.16371 4284.43525,930.805876 C4283.84249,828.276153 4282.95984,751.648157 4282.32157,747.362376 C4281.23361,740.056852 4279.54447,731.10256 4277.40839,721.317941 C4276.79655,718.515288 4275.65277,713.164559 4274.86663,709.427378 C4274.08049,705.690191 4272.845,701.519772 4272.1211,700.159821 C4271.39714,698.799798 4270.78762,696.507094 4270.76664,695.064815 C4270.74545,693.622607 4269.74919,690.404328 4268.55228,687.913088 C4267.35544,685.421914 4266.35735,682.87406 4266.3341,682.251226 C4266.25498,680.115584 4258.09097,660.838307 4251.46809,647.147871 C4235.77446,614.707161 4206.73729,577.306057 4174.62861,548.175758 C4148.57456,524.538396 4125.64352,509.499235 4092.85461,494.544746 C4090.06712,493.273375 4086.44121,491.546816 4084.79701,490.707901 C4083.15273,489.868986 4081.20218,489.182654 4080.46211,489.182654 C4079.72217,489.182654 4077.51975,488.421663 4075.56772,487.491612 C4071.78086,485.687199 4062.6916,482.943927 4054.82702,481.231646 C4052.1855,480.656269 4049.10558,479.691694 4047.98272,479.087477 C4046.85978,478.482975 4043.19254,477.664234 4039.83334,477.267366 C4036.47407,476.870284 4032.20516,476.044582 4030.34681,475.432054 C4025.19574,473.734122 3985.62131,469.948421 3972.93433,469.939897 C3959.36541,469.932793 3929.00083,472.718402 3916.59385,475.112186 C3899.95179,478.323006 3885.47973,481.788981 3882.72587,483.223447 C3881.53087,483.845707 3878.55192,484.719073 3876.10575,485.16389 C3873.65965,485.608564 3870.63258,486.694891 3869.37915,487.577634 C3868.12565,488.460377 3866.07244,489.198849 3864.81654,489.218668 C3863.56064,489.239978 3861.54926,490.002815 3860.34684,490.917168 C3859.14427,491.831592 3857.49004,492.579725 3856.67048,492.579725 C3854.64497,492.579725 3826.22148,506.547193 3821.00711,510.104944 C3818.70379,511.676506 3816.57188,512.962368 3816.26971,512.962368 C3815.15829,512.962368 3793.52236,528.030796 3785.00595,534.736075 C3766.32764,549.44244 3733.49796,583.733877 3720.74987,601.853158 C3712.13426,614.098968 3703.72799,627.082966 3700.22247,633.559444 C3693.74711,645.522679 3685.56898,662.771571 3681.83426,672.343014 C3680.55844,675.61272 3678.50099,680.802842 3677.26212,683.876633 C3676.02317,686.950358 3675.00953,690.674756 3675.00953,692.152982 C3675.00953,693.631202 3674.26543,695.829784 3673.35593,697.038719 C3672.4465,698.247648 3671.68629,700.316877 3671.66658,701.637046 C3671.64538,702.957221 3670.61712,707.227516 3669.37825,711.126589 C3668.1393,715.025728 3667.12566,719.788503 3667.12566,721.710694 C3667.12566,723.632808 3666.37915,727.26081 3665.46683,729.772796 C3662.13568,738.944742 3661.48738,753.439143 3660.69036,918.091454 C3660.5858,939.639838 3660.47911,963.75995 3660.36324,990.776627 C3659.50708,1190.60432 3659.13348,1224.07887 3657.71508,1228.00763 C3656.80685,1230.52345 3655.73245,1234.54392 3655.32783,1236.94211 C3654.49528,1241.8753 3652.80945,1246.1142 3647.15486,1257.49381 C3634.52588,1282.90852 3612.30666,1301.65219 3583.21855,1311.42871 C3575.91819,1313.88237 3573.54239,1314.07694 3551.11997,1314.05733 C3528.63672,1314.03602 3526.38174,1313.84778 3519.58449,1311.39767 C3509.35979,1307.71248 3496.49293,1301.30007 3489.17526,1296.24272 C3472.64145,1284.81601 3453.64952,1259.84562 3450.22984,1245.03774 C3449.79816,1243.16933 3448.99308,1241.06032 3448.44031,1240.35111 C3447.88781,1239.64148 3446.57489,1234.54612 3445.5231,1229.02747 C3443.77306,1219.84466 3443.58124,1200.40436 3443.26345,999.880237 C3443.01405,842.482935 3443.27758,775.983071 3444.20997,763.78166 C3444.9215,754.43966 3445.92504,740.681389 3446.43974,733.207801 C3446.95479,725.734142 3448.14456,715.79766 3449.08422,711.126589 C3450.02396,706.455589 3450.81293,700.78705 3450.83745,698.52987 C3450.8657,696.272684 3451.64245,692.259457 3452.57159,689.611656 C3453.50073,686.963855 3454.26101,682.932944 3454.26101,680.654166 C3454.26101,678.375388 3455.27464,673.611333 3456.51352,670.067363 C3457.7524,666.523392 3458.76604,662.532901 3458.76604,661.199658 C3458.76604,659.866344 3459.48689,656.414077 3460.36785,653.527886 C3461.2488,650.64169 3463.09027,644.458513 3464.45999,639.787513 C3465.82964,635.116442 3467.44432,630.020799 3468.04782,628.463801 C3468.65119,626.906797 3469.80372,623.339812 3470.60845,620.537229 C3472.6098,613.566849 3475.44688,605.65434 3476.79463,603.284002 C3477.4093,602.202574 3477.91262,600.666316 3477.91262,599.870165 C3477.91262,599.073943 3478.92626,596.521038 3480.16514,594.19701 C3481.40401,591.872982 3482.41765,589.461581 3482.41765,588.83833 C3482.41765,587.531581 3488.0454,575.356312 3496.5532,558.257013 C3514.95236,521.27771 3539.96359,483.938478 3567.41138,452.47314 C3586.60311,430.472265 3621.66058,396.104182 3638.96881,382.322754 C3659.37921,366.07125 3692.62969,342.169215 3698.707,339.379983 C3699.61084,338.965143 3702.37763,337.355009 3704.85538,335.801916 C3707.3332,334.248752 3711.13433,332.039089 3713.30241,330.89153 C3715.4705,329.743901 3721.2989,326.609017 3726.25448,323.925058 C3731.21006,321.241099 3736.53167,318.364993 3738.08029,317.53375 C3742.15639,315.345894 3756.77936,308.71236 3763.98441,305.782765 C3767.39137,304.397455 3772.26174,302.292212 3774.80732,301.104519 C3777.35304,299.916755 3780.14052,298.92874 3781.00177,298.908921 C3781.86315,298.887611 3783.55166,298.124774 3784.75408,297.21042 C3785.95656,296.295996 3787.99126,295.547863 3789.27577,295.547863 C3790.56043,295.547863 3793.50258,294.528735 3795.81409,293.283078 C3798.12552,292.037492 3801.05742,291.018363 3802.3293,291.018363 C3803.60123,291.018363 3806.02798,290.297721 3807.72213,289.416896 C3809.41622,288.536071 3812.76496,287.445269 3815.16373,286.992781 C3817.56242,286.540292 3820.83931,285.480674 3822.44557,284.637995 C3824.05176,283.795244 3826.4961,283.102589 3827.87734,283.098753 C3829.25851,283.095415 3832.29942,282.370794 3834.63495,281.489543 C3836.97041,280.608292 3841.16189,279.568705 3843.94937,279.179367 C3846.73693,278.790099 3851.5517,277.760386 3854.64892,276.891424 C3861.80748,274.88293 3871.90763,273.058415 3886.18441,271.19476 C3892.37886,270.386106 3899.98118,269.189747 3903.07841,268.53609 C3925.57529,263.788585 4020.81556,264.051341 4044.98808,268.927488 C4049.32418,269.802204 4056.16629,270.834261 4060.19266,271.220901 C4064.21909,271.607327 4069.06664,272.406747 4070.96512,272.996899 C4072.86353,273.587194 4077.67829,274.511208 4081.6646,275.050571 C4088.70107,276.002643 4098.76709,278.229639 4110.31156,281.388248 C4122.66584,284.768485 4133.00719,287.765562 4136.21568,288.895647 C4138.07404,289.549872 4141.40159,290.531779 4143.61023,291.076896 C4145.81886,291.622439 4149.11314,292.847922 4150.93093,293.800918 C4152.74873,294.753985 4154.85231,295.536924 4155.60566,295.54076 C4156.35888,295.544099 4158.63959,296.255152 4160.67386,297.119852 C4162.70799,297.984552 4167.15989,299.820575 4170.56685,301.199776 C4182.42565,306.000626 4188.55065,308.777853 4207.73369,318.051945 C4233.19822,330.362964 4266.93938,351.836268 4293.04211,372.343434 C4300.71692,378.372893 4308.63321,384.58008 4310.63407,386.137081 C4317.68023,391.620286 4325.66492,399.253984 4349.64499,423.433408 C4379.70731,453.745576 4396.71139,474.276468 4417.29347,505.112869 C4426.38838,518.739159 4428.50524,522.080042 4431.23543,527.116798 C4431.91086,528.362384 4433.29111,530.655441 4434.30326,532.212441 C4442.93689,545.493857 4461.37131,584.329783 4468.7036,604.683944 C4469.93753,608.109359 4472.03581,613.724405 4473.36625,617.161894 C4474.69669,620.599312 4475.78522,624.342461 4475.78522,625.479932 C4475.78522,626.617404 4476.48326,628.900589 4477.33687,630.553698 C4478.79328,633.374685 4479.64542,636.180751 4482.63363,647.997015 C4483.30269,650.643893 4484.36268,654.338243 4484.98823,656.20666 C4486.0468,659.367896 4486.98386,663.716754 4490.35598,681.118729 C4491.08016,684.855558 4492.38248,691.225132 4493.2503,695.273304 C4494.11797,699.321547 4495.13775,706.200647 4495.51652,710.560304 C4495.89521,714.91989 4497.05906,722.563388 4498.10265,727.545802 C4499.84838,735.880893 4500,756.419241 4500,984.593165 L4500,1232.5816 L4497.3293,1239.94195 C4493.6716,1250.02229 4486.59209,1264.26444 4481.8501,1271.0821 C4476.40964,1278.90375 4465.14156,1290.30887 4457.96491,1295.25762 C4450.71726,1300.25537 4434.26575,1309.01639 4432.12868,1309.01639 C4431.28185,1309.01639 4428.19367,1310.05235 4425.26608,1311.31868 C4421.04373,1313.1449 4416.26521,1313.78875 4402.15608,1314.43268 C4392.37324,1314.87877 4384.23664,1315.11105 4384.07464,1314.94768 L4384.07485,1314.9481 L4384.07485,1314.9481 Z M1579.99156,1307.25736 C1575.87652,1306.35644 1571.06176,1305.61285 1569.292,1305.60483 C1567.52232,1305.59061 1562.86165,1304.57759 1558.9349,1303.34004 C1555.00816,1302.10248 1550.19339,1301.07191 1548.23536,1301.04982 C1546.27731,1301.02851 1543.4083,1300.28144 1541.85969,1299.39139 C1540.31107,1298.50133 1537.52351,1297.75192 1535.66516,1297.72599 C1533.80689,1297.69757 1530.87124,1296.93672 1529.14162,1296.02962 C1527.41192,1295.12258 1524.11758,1294.03845 1521.82091,1293.62049 C1519.5241,1293.20281 1516.27625,1292.16436 1514.60364,1291.31351 C1512.93096,1290.46259 1510.38927,1289.76624 1508.95568,1289.76624 C1507.52195,1289.76624 1504.45771,1288.74712 1502.14614,1287.50153 C1499.8347,1286.25594 1497.31929,1285.23682 1496.5566,1285.23682 C1495.23019,1285.23682 1478.55324,1278.85999 1471.46794,1275.64363 C1469.60966,1274.79996 1465.04825,1272.73457 1461.33156,1271.05369 C1453.99651,1267.73638 1430.84348,1256.33915 1428.10665,1254.69833 C1427.17751,1254.14142 1420.11751,1250.01419 1412.4179,1245.52681 C1386.3724,1230.34778 1358.09444,1210.15743 1335.81249,1190.831 C1317.49083,1174.93971 1280.03446,1136.86626 1266.38083,1120.25561 C1247.85803,1097.7212 1241.35158,1088.67058 1222.58185,1059.32953 C1215.74349,1048.63972 1198.87181,1015.96169 1191.59576,999.31409 C1190.23479,996.200094 1188.44031,992.123505 1187.60811,990.255164 C1186.7759,988.386752 1184.98672,983.800636 1183.63219,980.063806 C1182.27773,976.327048 1180.51073,971.486133 1179.70551,969.306378 C1178.90037,967.126547 1177.11931,961.776105 1175.74747,957.416519 C1174.37584,953.056861 1172.56455,947.816521 1171.72245,945.771302 C1170.88042,943.726089 1170.19885,941.178229 1170.20782,940.109446 C1170.22195,939.040669 1169.24859,934.854049 1168.05613,930.805876 C1164.93452,920.207708 1163.49359,914.305116 1161.83652,905.327589 C1161.0318,900.968003 1159.81716,895.107962 1159.13735,892.305375 C1157.47753,885.462644 1156.04854,874.691081 1153.12858,847.010662 C1150.3755,820.913168 1148.97362,764.417913 1150.90884,757.553657 C1151.52351,755.373831 1152.59155,745.437344 1153.28252,735.472516 C1153.97349,725.507689 1155.27334,714.1925 1156.17076,710.327735 C1157.06825,706.462904 1157.81454,701.367261 1157.82903,699.004022 C1157.84315,696.640855 1158.85736,690.920037 1160.08161,686.291089 C1161.30593,681.662212 1162.30763,676.449504 1162.30763,674.707247 C1162.30763,672.965061 1163.00355,669.618424 1163.85398,667.270314 C1164.70455,664.922205 1165.93198,660.453159 1166.58163,657.339158 C1168.08114,650.152051 1170.09075,642.59514 1171.85139,637.522727 C1176.29071,624.734005 1177.20487,621.856761 1177.96763,618.272514 C1178.43181,616.092683 1179.34618,613.2901 1180.00027,612.044511 C1180.65451,610.798855 1182.26275,606.849778 1183.5744,603.268658 C1189.26623,587.728633 1191.64655,582.409801 1203.39366,558.983124 C1210.22008,545.369406 1216.31216,533.387419 1216.93163,532.356499 C1217.55125,531.325578 1219.28087,528.450964 1220.77565,525.9686 C1233.5857,504.694974 1260.82266,467.088937 1273.41398,453.290957 C1275.79876,450.677606 1280.53757,445.346272 1283.94446,441.443649 C1291.90577,432.323986 1314.1618,410.022565 1323.31733,401.990366 C1327.22189,398.564951 1332.50409,393.795285 1335.0556,391.39113 C1345.6734,381.386522 1382.09268,353.919845 1396.41093,345.11806 C1399.72979,343.077956 1403.6176,340.644393 1405.05063,339.710151 C1412.55192,334.819867 1432.52478,323.740085 1444.43756,317.860437 C1461.13762,309.618046 1463.37776,308.602399 1481.04123,301.265269 C1484.44819,299.850124 1488.90009,297.984694 1490.93422,297.119994 C1492.96849,296.255294 1495.2492,295.544738 1496.00249,295.540902 C1496.75584,295.537492 1498.85935,294.754126 1500.67715,293.80106 C1502.49494,292.848064 1505.78929,291.622226 1507.99785,291.077038 C1510.2065,290.532205 1513.53404,289.550299 1515.39239,288.895789 C1517.25074,288.240853 1522.57236,286.631003 1527.2182,285.317437 C1531.86403,284.003872 1538.19929,282.206421 1541.29652,281.32311 C1544.39374,280.439799 1549.46193,279.231577 1552.55923,278.638298 C1555.65646,278.045162 1560.2178,277.049901 1562.69562,276.427002 C1569.62145,274.686023 1578.74059,272.997397 1588.03658,271.734407 C1592.68249,271.102913 1601.04502,269.858961 1606.62,268.969398 C1639.3336,263.749801 1724.77018,263.740779 1750.78219,268.955192 C1755.11836,269.824225 1762.17009,270.862391 1766.45285,271.262171 C1770.73576,271.662094 1776.56416,272.698413 1779.40492,273.565387 C1782.24582,274.43236 1786.40706,275.147177 1788.65215,275.153926 C1790.8971,275.160745 1794.78273,275.892966 1797.28677,276.781179 C1799.7908,277.669462 1804.23698,278.757707 1807.16732,279.199469 C1810.09753,279.641303 1813.81422,280.694883 1815.4267,281.540759 C1817.03905,282.386706 1819.74175,283.081918 1821.43273,283.085754 C1823.12356,283.089164 1826.4179,283.842837 1828.75343,284.759535 C1831.08889,285.676303 1835.02701,286.905196 1837.50477,287.490518 C1839.98259,288.07584 1843.78372,289.192215 1845.9518,289.971318 C1848.11982,290.750422 1852.68122,292.388543 1856.08819,293.611469 C1876.36661,300.890777 1889.10219,306.295774 1912.40154,317.510948 C1924.26755,323.222671 1943.03091,333.641125 1952.38356,339.711145 C1953.82295,340.645317 1957.45281,342.902288 1960.44992,344.726519 C1965.62247,347.8749 1969.88969,350.790572 1982.79321,359.992706 C2010.82572,379.984021 2045.3995,410.489261 2068.28963,435.428041 C2091.81025,461.053724 2108.17536,481.624536 2123.6667,505.03672 C2127.16954,510.330549 2130.89733,515.935791 2131.95089,517.492791 C2133.00438,519.049792 2136.77194,525.419363 2140.32318,531.647363 C2143.87441,537.875363 2147.51431,544.244937 2148.41179,545.801935 C2150.23694,548.968073 2162.78847,574.75884 2165.49563,580.905362 C2166.45565,583.085122 2167.88444,586.397308 2168.67057,588.26572 C2169.45672,590.134138 2171.16232,593.989379 2172.46075,596.832881 C2173.7594,599.676454 2174.82178,602.469238 2174.82178,603.039072 C2174.82178,603.60877 2175.89951,606.887565 2177.21666,610.324988 C2180.79086,619.652354 2182.14363,623.640998 2184.90546,632.994225 C2186.28458,637.665225 2187.91473,643.015668 2188.52792,644.88408 C2189.14117,646.752497 2190.32395,651.083809 2191.15637,654.509224 C2191.98892,657.93464 2193.18173,662.775478 2193.80714,665.266724 C2196.80863,677.222573 2197.49615,680.592226 2198.54313,688.480225 C2199.16275,693.151224 2200.41462,699.599218 2201.32433,702.809111 C2202.23412,706.018938 2202.98005,711.114653 2202.98203,714.132758 C2202.98203,717.150934 2203.83691,724.206413 2204.87733,729.811655 C2207.66856,744.849605 2207.65514,838.447551 2204.85614,852.515462 C2203.82144,857.722417 2202.97496,864.891196 2202.97496,868.446174 C2202.97496,872.001157 2202.25693,877.422706 2201.37944,880.494013 C2200.50188,883.565391 2199.47305,888.880888 2199.09301,892.306298 C2198.71291,895.731714 2197.69249,901.082156 2196.8251,904.196158 C2195.95764,907.310231 2194.73282,912.405874 2194.10324,915.51987 C2192.55294,923.188092 2189.88244,934.029343 2188.52438,938.167229 C2187.91113,940.03557 2186.28105,945.386018 2184.90193,950.057089 C2182.27772,958.944396 2181.2248,962.080913 2177.10906,973.270584 C2173.62912,982.731853 2170.49211,990.688897 2168.40408,995.351731 C2167.42789,997.531557 2165.72914,1001.35328 2164.62923,1003.84451 C2158.16468,1018.48504 2144.1804,1045.4554 2138.20801,1054.80102 C2107.25554,1103.23509 2091.61222,1123.017 2055.9971,1158.76137 C2007.62753,1207.30668 1953.34258,1245.42133 1896.06717,1271.0517 C1885.64267,1275.71659 1881.90746,1277.28481 1875.79433,1279.56338 C1872.07763,1280.94855 1867.5163,1282.71282 1865.65795,1283.48369 C1860.08594,1285.79521 1854.69734,1287.673 1849.13268,1289.24215 C1846.23829,1290.05834 1842.94395,1291.21555 1841.8119,1291.81373 C1840.67992,1292.41184 1837.60247,1293.25964 1834.97304,1293.69756 C1832.3436,1294.13514 1829.92441,1294.92958 1829.59701,1295.46212 C1829.2699,1295.99488 1826.60619,1296.78428 1823.67824,1297.21653 C1820.7503,1297.64913 1817.08765,1298.50388 1815.53904,1299.11684 C1812.95086,1300.14115 1809.36374,1300.95457 1791.88743,1304.47985 C1788.48047,1305.16676 1782.39864,1306.4404 1778.3722,1307.30943 C1774.34584,1308.17839 1767.25037,1309.21542 1762.60446,1309.61385 C1757.95863,1310.01236 1751.29483,1311.06068 1747.79624,1311.94371 C1740.31084,1313.83286 1658.35753,1314.96579 1630.26808,1313.56848 C1613.24514,1312.72061 1593.79737,1310.27987 1579.99156,1307.25736 L1579.99156,1307.25736 Z M1695.59509,1109.66113 C1701.78961,1109.06658 1712.74612,1108.12601 1719.94297,1107.57109 C1727.13983,1107.01632 1734.07528,1105.99875 1735.3552,1105.31014 C1736.63491,1104.62111 1739.47864,1104.05802 1741.67442,1104.05802 C1743.8702,1104.05802 1748.84506,1103.09501 1752.72955,1101.91805 C1756.61413,1100.74101 1762.07302,1099.19076 1764.86058,1098.47309 C1774.30973,1096.04032 1785.22258,1092.4945 1791.3278,1089.87348 C1793.18615,1089.07569 1797.2407,1087.33372 1800.33792,1086.00239 C1827.55723,1074.30277 1852.67967,1058.58338 1875.8016,1038.78386 C1894.47158,1022.79667 1901.50459,1015.68188 1920.41484,993.652234 C1926.66941,986.365966 1946.18954,959.024735 1946.18954,957.550494 C1946.18954,957.22089 1947.41181,955.140016 1948.90567,952.926728 C1950.39966,950.713445 1955.01625,941.900789 1959.16484,933.343081 C1963.31343,924.785367 1967.41271,916.431097 1968.27438,914.777988 C1969.13611,913.124879 1969.84433,911.086622 1969.84814,910.248563 C1969.84814,909.410427 1970.51439,907.450806 1971.31974,905.893808 C1972.12524,904.336804 1974.19117,898.476763 1975.91047,892.871522 C1977.62985,887.266346 1979.75526,880.759039 1980.63339,878.41093 C1981.51152,876.062826 1982.23012,872.606938 1982.23012,870.731134 C1982.23012,868.855331 1982.93169,865.633073 1983.78848,863.570598 C1984.64562,861.508118 1985.71882,856.598937 1986.17339,852.661225 C1986.62769,848.723584 1987.49267,843.930474 1988.09505,842.009921 C1989.14924,838.648577 1991.41256,804.36098 1991.42768,791.524663 C1991.44174,779.872841 1989.27917,744.223227 1988.48017,742.923297 C1988.04213,742.211321 1986.98094,736.931419 1986.12111,731.190214 C1984.44943,720.027464 1983.28961,714.84225 1979.86046,703.200018 C1978.66794,699.151846 1977.68362,695.075328 1977.67288,694.141086 C1977.65875,693.206916 1976.90928,691.453431 1975.99985,690.244502 C1975.09035,689.035568 1974.34625,687.091719 1974.34625,685.924907 C1974.34625,684.758101 1973.33261,681.288573 1972.09366,678.214776 C1970.85479,675.141057 1968.77311,669.950935 1967.46775,666.681229 C1964.94316,660.357406 1954.95797,640.070015 1950.53489,632.277413 C1931.5046,598.750593 1903.11926,565.163959 1871.09049,538.275358 C1853.1914,523.248911 1820.92467,503.27848 1801.79971,495.390338 C1797.89847,493.781341 1793.18615,491.788829 1791.3278,490.962701 C1786.7678,488.935454 1781.13694,486.964466 1774.80253,485.178238 C1771.90815,484.362055 1768.52047,483.145664 1767.27425,482.475172 C1766.02817,481.804608 1763.77021,481.256082 1762.2565,481.256082 C1760.74279,481.256082 1757.64423,480.474705 1755.37087,479.519649 C1753.09744,478.564665 1747.84075,477.305511 1743.68912,476.72161 C1739.53742,476.137707 1734.11343,475.150402 1731.63567,474.527574 C1711.21115,469.393502 1644.83135,469.462618 1624.64032,474.639098 C1622.1625,475.274144 1617.34774,476.197022 1613.94078,476.689502 C1610.53382,477.181769 1605.2122,478.348507 1602.11497,479.281826 C1596.94574,480.839466 1593.60682,481.747994 1582.33153,484.664448 C1580.12289,485.235563 1576.82855,486.482996 1575.01076,487.435992 C1573.19296,488.389058 1571.20871,489.171998 1570.60118,489.175834 C1568.45634,489.190041 1556.87922,494.365526 1541.22219,502.311349 C1524.86677,510.61156 1503.97516,523.883957 1493.82006,532.425899 C1490.62759,535.111278 1485.16439,539.601425 1481.67964,542.404011 C1474.18697,548.430063 1442.36513,580.901031 1439.69295,585.247192 C1438.67246,586.906906 1436.46056,589.793597 1434.77764,591.662009 C1430.46889,596.445816 1415.358,618.534914 1410.76373,626.76537 C1409.72084,628.633782 1407.10553,633.219898 1404.95207,636.956728 C1402.79868,640.693486 1399.50512,647.063054 1397.63327,651.111297 C1395.76143,655.159541 1393.48963,659.824221 1392.58486,661.47733 C1391.68017,663.130439 1390.93988,665.176224 1390.93988,666.023521 C1390.93988,666.87089 1389.92624,669.465632 1388.68737,671.78966 C1387.44842,674.113688 1386.43478,676.830106 1386.43478,677.826222 C1386.43478,678.822261 1385.74239,680.989733 1384.89557,682.642842 C1382.70212,686.92571 1375.84623,710.480389 1374.13307,719.619516 C1373.54948,722.733513 1372.54277,727.319629 1371.89624,729.810803 C1371.24977,732.302043 1370.7083,736.63336 1370.69297,739.435942 C1370.67884,742.23853 1369.81873,748.353304 1368.78425,753.024375 C1366.44285,763.595978 1366.09489,817.912258 1368.30876,827.194374 C1369.05166,830.308375 1370.08636,837.442346 1370.60819,843.047516 C1371.1303,848.652758 1372.05393,854.512733 1372.66133,856.069731 C1373.26893,857.626734 1374.14161,861.703318 1374.60092,865.128734 C1375.06016,868.554144 1376.13682,872.732735 1376.99333,874.414476 C1377.84998,876.096283 1378.5507,878.821867 1378.5507,880.471349 C1378.5507,882.120908 1379.27848,885.076222 1380.16806,887.038755 C1381.0577,889.001289 1382.29361,892.390478 1382.91492,894.570233 C1384.34547,899.59051 1387.30564,908.039963 1388.66716,910.989588 C1389.24227,912.235178 1390.96609,916.31169 1392.49831,920.04852 C1396.17948,929.02647 1407.23765,950.498988 1411.33446,956.624132 C1413.12568,959.302269 1414.59128,961.724963 1414.59128,962.00796 C1414.59128,962.798928 1424.73848,977.437031 1427.50018,980.630162 C1428.84687,982.187166 1430.82914,984.887103 1431.90502,986.630075 C1439.58238,999.066182 1472.7172,1032.47828 1492.86697,1048.10192 C1505.82299,1058.1478 1527.8222,1072.43456 1535.61281,1075.86204 C1536.88044,1076.41966 1538.67775,1077.35795 1539.60689,1077.94696 C1542.38441,1079.70776 1558.24294,1087.07266 1559.25686,1087.07266 C1559.77333,1087.07266 1562.27891,1088.02111 1564.82463,1089.18025 C1570.32599,1091.68535 1575.50659,1093.58246 1582.40508,1095.61809 C1585.19257,1096.44066 1588.9937,1097.61593 1590.85205,1098.22987 C1597.0809,1100.28767 1604.30277,1101.98049 1612.88891,1103.39549 C1617.57595,1104.16784 1622.02904,1105.18406 1622.7848,1105.65367 C1623.54063,1106.1232 1630.34905,1107.01795 1637.9147,1107.64184 C1645.48043,1108.26553 1655.72505,1109.16447 1660.68063,1109.63897 C1673.67204,1110.88299 1682.80737,1110.88882 1695.59488,1109.66028 L1695.59509,1109.66113 L1695.59509,1109.66113 Z"/>
</svg>
